<svg xmlns="http://www.w3.org/2000/svg" xmlns:xlink="http://www.w3.org/1999/xlink" fill="none" version="1.1" width="66" height="66" viewBox="0 0 66 66"><g><g><g><ellipse cx="33" cy="33" rx="33" ry="33" fill="#DEDFFF" fill-opacity="1"/></g><g><ellipse cx="33" cy="33" rx="29" ry="29" fill="#7370F0" fill-opacity="1"/></g><g><g><g><path d="M28.67187875,20.322998046875C27.98151875,20.322998046875,27.42187875,20.882642046875,27.42187875,21.572998046875L27.42187875,23.300838046875L24.85546875,23.300838046875Q21.60546875,23.300838046875,21.60546875,26.550838046875L21.60546875,42.427198046875Q21.60546875,45.677198046875,24.85546875,45.677198046875L41.14876875,45.677198046875Q42.49496875,45.677198046875,43.44686875,44.725298046875Q44.39876875,43.773398046875,44.39876875,42.427198046875L44.39876875,26.550838046875Q44.39876875,23.300838046875,41.14876875,23.300838046875L38.57426875,23.300838046875L38.57426875,21.572998046875C38.57426875,20.882642046875,38.014568749999995,20.322998046875,37.32426875,20.322998046875C36.63386875,20.322998046875,36.07426875,20.882642046875,36.07426875,21.572998046875L36.07426875,23.300838046875L29.921878749999998,23.300838046875L29.921878749999998,21.572998046875C29.921878749999998,20.882642046875,29.36222875,20.322998046875,28.67187875,20.322998046875ZM27.42187875,25.800838046875L27.42187875,26.910668046875C27.42187875,27.601028046875,27.98151875,28.160668046875,28.67187875,28.160668046875C29.36222875,28.160668046875,29.921878749999998,27.601028046875,29.921878749999998,26.910668046875L29.921878749999998,25.800838046875L36.07426875,25.800838046875L36.07426875,26.910668046875C36.07426875,27.601028046875,36.63386875,28.160668046875,37.32426875,28.160668046875C38.014568749999995,28.160668046875,38.57426875,27.601028046875,38.57426875,26.910668046875L38.57426875,25.800838046875L41.14876875,25.800838046875Q41.89876875,25.800838046875,41.89876875,26.550838046875L41.89876875,42.427198046875Q41.89876875,43.177198046875,41.14876875,43.177198046875L24.85546875,43.177198046875Q24.10546875,43.177198046875,24.10546875,42.427198046875L24.10546875,26.550838046875Q24.10546875,25.800838046875,24.85546875,25.800838046875L27.42187875,25.800838046875ZM27.10155875,31.612698046875L38.89466875,31.612698046875C39.585068750000005,31.612698046875,40.14466875,32.172398046875,40.14466875,32.862698046874996C40.14466875,33.553098046875,39.585068750000005,34.112698046874996,38.89466875,34.112698046874996L27.10155875,34.112698046874996C26.41120875,34.112698046874996,25.85155875,33.553098046875,25.85155875,32.862698046874996C25.85155875,32.172398046875,26.41120875,31.612698046875,27.10155875,31.612698046875ZM27.10155875,37.570098046875L33.83926875,37.570098046875C34.52966875,37.570098046875,35.08926875,38.129698046875,35.08926875,38.820098046875C35.08926875,39.510398046875,34.52966875,40.070098046875,33.83926875,40.070098046875L27.10155875,40.070098046875C26.41120875,40.070098046875,25.85155875,39.510398046875,25.85155875,38.820098046875C25.85155875,38.129698046875,26.41120875,37.570098046875,27.10155875,37.570098046875Z" fill-rule="evenodd" fill="#FFFFFF" fill-opacity="1"/></g></g></g></g></g></svg>